<svg xmlns="http://www.w3.org/2000/svg" width="128" height="128" viewBox="0 0 128 128" role="img" aria-label="Skeu">
  <defs>
    <linearGradient id="g" x1="0" y1="0" x2="1" y2="1">
      <stop offset="0%" stop-color="#8B5CF6"/>
      <stop offset="100%" stop-color="#4C1D95"/>
    </linearGradient>
  </defs>
  <rect width="128" height="128" rx="28" fill="url(#g)"/>
  <path d="M34 38h30c9 0 15 5 15 13 0 6-4 10-10 12 7 2 12 7 12 15 0 10-8 16-19 16H34v-12h27c5 0 8-2 8-6s-3-6-8-6H34V58h25c5 0 8-2 8-6s-3-6-8-6H34V38Z" fill="#fff"/>
  <path d="M88 38h12v24l20-24h8l-19 23 19 33h-13l-13-24-2 2v22H88V38Z" fill="#fff"/>
</svg>
